# xmcd CD database file
#
# Track frame offsets:
#	150
#	22515
#	43738
#	64813
#	88416
#	116292
#	137431
#	162010
#	181389
#	199718
#	218748
#
# Disc length: 3253 seconds
#
# Revision: 0
# Processed by: cddbd v1.5.2PL0 Copyright (c) Steve Scherf et al.
# Submitted via: CDex 1.70beta2
#
DISCID=8b0cb30b
DTITLE=Patsy Gamble - Secret Soul
DYEAR=2008
DGENRE=Jazz
TTITLE0=Secret Soul
TTITLE1=Love Me Or Leave Me
TTITLE2=Ain't No Sunshine
TTITLE3=Sweetheart Of Mine
TTITLE4=I Won't Forget You
TTITLE5=After The Love Has Gone
TTITLE6=Moving On
TTITLE7=The Runaround
TTITLE8=Walk In The Night
TTITLE9=Suo Gan (Welsh Lullaby)
TTITLE10=Just Groovin'
EXTD=YEAR: 2008
EXTT0=
EXTT1=
EXTT2=
EXTT3=
EXTT4=
EXTT5=
EXTT6=
EXTT7=
EXTT8=
EXTT9=
EXTT10=
PLAYORDER=
